<svg width="887" height="198" viewBox="0 0 887 198" fill="none" xmlns="http://www.w3.org/2000/svg">
<path d="M78.5766 81.5348C86.0953 83.1371 92.1349 86.8965 96.6955 92.8128C101.256 98.6059 103.536 105.262 103.536 112.781C103.536 123.627 99.7153 132.255 92.0733 138.665C84.5546 144.951 74.0161 148.094 60.4578 148.094H0V18.3037H58.424C71.6126 18.3037 81.9046 21.3235 89.3 27.3631C96.8187 33.4028 100.578 41.5994 100.578 51.953C100.578 59.595 98.5443 65.9427 94.4768 70.9963C90.5326 76.0498 85.2325 79.5627 78.5766 81.5348ZM31.6155 70.8114H52.3228C57.4996 70.8114 61.4438 69.7021 64.1555 67.4834C66.9904 65.1416 68.4079 61.752 68.4079 57.3147C68.4079 52.8774 66.9904 49.4879 64.1555 47.146C61.4438 44.8041 57.4996 43.6331 52.3228 43.6331H31.6155V70.8114ZM54.9112 122.58C60.2113 122.58 64.2787 121.409 67.1137 119.067C70.0718 116.602 71.5509 113.089 71.5509 108.528C71.5509 103.968 70.0102 100.393 66.9288 97.8048C63.9706 95.2164 59.8415 93.9222 54.5414 93.9222H31.6155V122.58H54.9112Z" fill="black"/>
<path d="M137.773 34.2039C132.227 34.2039 127.666 32.6016 124.092 29.3969C120.641 26.069 118.915 22.0015 118.915 17.1944C118.915 12.2641 120.641 8.19662 124.092 4.99193C127.666 1.66398 132.227 0 137.773 0C143.197 0 147.634 1.66398 151.085 4.99193C154.66 8.19662 156.447 12.2641 156.447 17.1944C156.447 22.0015 154.66 26.069 151.085 29.3969C147.634 32.6016 143.197 34.2039 137.773 34.2039ZM153.489 44.9273V148.094H121.873V44.9273H153.489Z" fill="black"/>
<path d="M239.261 43.818C251.341 43.818 260.955 47.7623 268.104 55.6507C275.376 63.416 279.012 74.1394 279.012 87.8209V148.094H247.581V92.0733C247.581 85.1709 245.794 79.8092 242.22 75.9882C238.645 72.1672 233.838 70.2567 227.799 70.2567C221.759 70.2567 216.952 72.1672 213.377 75.9882C209.803 79.8092 208.016 85.1709 208.016 92.0733V148.094H176.4V44.9273H208.016V58.6089C211.22 54.0484 215.534 50.4739 220.958 47.8855C226.381 45.1739 232.482 43.818 239.261 43.818Z" fill="black"/>
<path d="M294.695 96.3257C294.695 85.7255 296.668 76.4196 300.612 68.4079C304.679 60.3961 310.164 54.2333 317.067 49.9193C323.969 45.6053 331.673 43.4482 340.177 43.4482C347.45 43.4482 353.797 44.9273 359.221 47.8855C364.767 50.8437 369.02 54.7263 371.978 59.5333V44.9273H403.593V148.094H371.978V133.488C368.896 138.295 364.582 142.177 359.036 145.136C353.613 148.094 347.265 149.573 339.993 149.573C331.611 149.573 323.969 147.416 317.067 143.102C310.164 138.665 304.679 132.44 300.612 124.428C296.668 116.293 294.695 106.926 294.695 96.3257ZM371.978 96.5106C371.978 88.6221 369.759 82.3976 365.322 77.8371C361.008 73.2765 355.708 70.9963 349.422 70.9963C343.136 70.9963 337.774 73.2765 333.337 77.8371C329.023 82.2743 326.866 88.4372 326.866 96.3257C326.866 104.214 329.023 110.5 333.337 115.184C337.774 119.745 343.136 122.025 349.422 122.025C355.708 122.025 361.008 119.745 365.322 115.184C369.759 110.624 371.978 104.399 371.978 96.5106Z" fill="black"/>
<path d="M473.427 149.388C463.936 149.388 455.431 147.847 447.913 144.766C440.394 141.684 434.354 137.124 429.794 131.084C425.357 125.045 423.015 117.772 422.768 109.268H456.417C456.91 114.075 458.574 117.772 461.409 120.361C464.244 122.826 467.942 124.059 472.503 124.059C477.186 124.059 480.884 123.011 483.596 120.916C486.307 118.697 487.663 115.677 487.663 111.856C487.663 108.651 486.554 106.001 484.335 103.906C482.24 101.811 479.59 100.085 476.385 98.7292C473.304 97.3734 468.866 95.8327 463.073 94.1071C454.692 91.5187 447.851 88.9302 442.551 86.3418C437.251 83.7534 432.69 79.9324 428.869 74.8789C425.048 69.8253 423.138 63.2311 423.138 55.0961C423.138 43.0168 427.514 33.5877 436.265 26.8085C445.016 19.9061 456.417 16.4549 470.469 16.4549C484.767 16.4549 496.291 19.9061 505.042 26.8085C513.794 33.5877 518.478 43.0785 519.094 55.281H484.89C484.643 51.0902 483.103 47.8239 480.268 45.482C477.433 43.0168 473.797 41.7843 469.359 41.7843C465.539 41.7843 462.457 42.832 460.115 44.9273C457.773 46.8995 456.602 49.796 456.602 53.617C456.602 57.8077 458.574 61.0741 462.519 63.416C466.463 65.7578 472.626 68.2846 481.007 70.9963C489.389 73.8312 496.168 76.5429 501.345 79.1313C506.645 81.7197 511.205 85.479 515.026 90.4093C518.847 95.3396 520.758 101.687 520.758 109.453C520.758 116.848 518.847 123.566 515.026 129.605C511.329 135.645 505.905 140.452 498.756 144.026C491.607 147.601 483.164 149.388 473.427 149.388Z" fill="black"/>
<path d="M597.714 121.285V148.094H581.629C570.166 148.094 561.23 145.321 554.82 139.774C548.411 134.104 545.206 124.921 545.206 112.226V71.1812H532.634V44.9273H545.206V19.7828H576.822V44.9273H597.529V71.1812H576.822V112.596C576.822 115.677 577.561 117.896 579.04 119.252C580.519 120.607 582.985 121.285 586.436 121.285H597.714Z" fill="black"/>
<path d="M720.709 44.9273L655.999 197.089H621.98L645.646 144.581L603.676 44.9273H638.99L662.84 109.453L686.505 44.9273H720.709Z" fill="black"/>
<path d="M763.757 9.42921V148.094H732.142V9.42921H763.757Z" fill="black"/>
<path d="M883.919 94.8466C883.919 97.8048 883.734 100.886 883.364 104.091H811.813C812.306 110.5 814.34 115.431 817.915 118.882C821.612 122.21 826.111 123.874 831.411 123.874C839.3 123.874 844.785 120.546 847.866 113.89H881.515C879.79 120.669 876.647 126.77 872.086 132.194C867.649 137.617 862.041 141.869 855.262 144.951C848.482 148.032 840.902 149.573 832.521 149.573C822.414 149.573 813.416 147.416 805.527 143.102C797.639 138.788 791.476 132.625 787.039 124.613C782.601 116.602 780.383 107.234 780.383 96.5106C780.383 85.7872 782.54 76.4196 786.854 68.4079C791.291 60.3961 797.454 54.2333 805.342 49.9193C813.231 45.6053 822.29 43.4482 832.521 43.4482C842.504 43.4482 851.379 45.5436 859.144 49.7344C866.909 53.9251 872.949 59.9031 877.263 67.6683C881.7 75.4336 883.919 84.493 883.919 94.8466ZM851.564 86.5267C851.564 81.1034 849.715 76.7894 846.017 73.5847C842.32 70.38 837.697 68.7777 832.151 68.7777C826.851 68.7777 822.352 70.3184 818.654 73.3998C815.08 76.4812 812.861 80.8569 811.998 86.5267H851.564Z" fill="black"/>
<path d="M780.081 9.4292H876.968C882.491 9.4292 886.968 13.9064 886.968 19.4292V32.54H780.081V9.4292Z" fill="#BC0000"/>
</svg>
